<svg width="326" height="326" viewBox="0 0 326 326" fill="none" xmlns="http://www.w3.org/2000/svg"><style>
  path { fill: black; }
  @media (prefers-color-scheme: dark) {
    path { fill: white; }
  }
</style>
<path fill-rule="evenodd" clip-rule="evenodd" d="M92.6959 281.187C146.974 255.765 179.822 255.759 234.09 281.167C238.797 283.511 244.105 284.83 249.721 284.83C269.109 284.83 284.827 269.113 284.827 249.724L284.826 249.497C284.824 249.044 284.812 248.593 284.793 248.144C284.57 243.123 283.293 238.376 281.178 234.12C255.756 179.833 255.759 146.983 281.189 92.6899C283.518 87.995 284.827 82.7046 284.827 77.1084V76.9929C284.766 57.6564 269.072 42 249.721 42C244.113 42 238.812 43.3149 234.11 45.6531C179.84 71.066 146.993 71.0676 92.7263 45.6576C88.0219 43.3166 82.718 42 77.1065 42C60.1413 42 45.9868 54.0338 42.7132 70.0312C42.2456 72.3166 42 74.6833 42 77.1069C42 78.3185 42.0614 79.5158 42.1813 80.6958C42.4745 83.5828 43.1174 86.3664 44.0672 89.0035C44.5186 90.257 45.0393 91.4774 45.6247 92.66C71.0747 146.985 71.0753 179.841 45.6264 234.165C44.312 236.82 43.3235 239.665 42.7133 242.647C42.2456 244.932 42 247.299 42 249.722C42 250.934 42.0614 252.132 42.1813 253.312C42.5082 256.531 43.27 259.621 44.4069 262.523C49.5227 275.581 62.2346 284.829 77.1065 284.829C82.7059 284.829 87.9991 283.518 92.6959 281.187ZM163.298 221.408C195.083 221.408 220.851 195.641 220.851 163.855C220.851 132.07 195.083 106.303 163.298 106.303C131.512 106.303 105.746 132.07 105.746 163.855C105.746 195.641 131.512 221.408 163.298 221.408Z" />
</svg>
