<svg width="437" height="437" viewBox="0 0 437 437" fill="none" xmlns="http://www.w3.org/2000/svg">
<path fill-rule="evenodd" clip-rule="evenodd" d="M91.1692 430.142C188.781 384.426 247.853 384.414 345.445 430.107C353.91 434.323 363.456 436.695 373.556 436.695C408.423 436.695 436.689 408.429 436.689 373.561L436.688 373.153C436.683 372.338 436.662 371.527 436.627 370.719C436.227 361.69 433.931 353.154 430.127 345.499C384.409 247.872 384.415 188.796 430.146 91.1584C434.335 82.7153 436.689 73.2013 436.689 63.1373L436.689 62.9296C436.579 28.1557 408.355 1.88818e-05 373.556 1.88818e-05C363.471 1.01152e-05 353.938 2.36458 345.482 6.56954C247.886 52.271 188.815 52.2738 91.2239 6.57773C82.7636 2.36765 73.2253 8.76654e-06 63.1339 0C32.6245 0 7.16968 21.6411 1.28267 50.4101C0.441689 54.52 1.19697e-05 58.7762 2.42766e-05 63.1346C1.87132e-05 65.3136 0.110471 67.4667 0.325962 69.5888C0.853246 74.7806 2.00953 79.7865 3.71752 84.5289C4.52932 86.7831 5.46575 88.9778 6.51851 91.1047C52.2866 188.801 52.2877 247.887 6.52153 345.581C4.15782 350.355 2.3802 355.471 1.28269 360.834C0.441685 364.944 1.48357e-05 369.2 0 373.558C1.50886e-05 375.737 0.110483 377.891 0.325975 380.013C0.913859 385.802 2.28385 391.359 4.32854 396.578C13.5284 420.062 36.3889 436.692 63.1339 436.692C73.2036 436.692 82.7226 434.335 91.1692 430.142ZM218.137 322.639C275.298 322.639 321.637 276.3 321.637 219.139C321.637 161.977 275.298 115.639 218.137 115.639C160.975 115.639 114.637 161.977 114.637 219.139C114.637 276.3 160.975 322.639 218.137 322.639Z" fill="black"/>
</svg>
