<svg width="592" height="160" viewBox="0 0 592 160" fill="none" xmlns="http://www.w3.org/2000/svg">
<path fill-rule="evenodd" clip-rule="evenodd" d="M41.5581 143.699C71.0637 129.88 88.9197 129.877 118.419 143.688C120.978 144.963 123.864 145.68 126.916 145.68C137.456 145.68 146 137.136 146 126.596L146 126.473C145.998 126.226 145.992 125.981 145.981 125.737C145.86 123.008 145.166 120.428 144.016 118.114C130.197 88.6041 130.199 70.7471 144.022 41.2342C145.288 38.6821 146 35.8063 146 32.7642V32.7014C145.967 22.1903 137.435 13.6797 126.916 13.6797C123.868 13.6797 120.986 14.3944 118.43 15.6655C88.9296 29.4797 71.074 29.4805 41.5747 15.6679C39.0173 14.3954 36.1341 13.6797 33.0838 13.6797C23.8616 13.6797 16.1672 20.2212 14.3877 28.9172C14.1335 30.1595 14 31.446 14 32.7634C14 33.4221 14.0334 34.0729 14.0985 34.7143C14.2579 36.2837 14.6074 37.7968 15.1237 39.2303C15.3691 39.9117 15.6522 40.575 15.9704 41.2179C29.8049 70.7487 29.8052 88.6086 15.9713 118.139C15.2568 119.582 14.7195 121.128 14.3877 122.749C14.1335 123.991 14 125.278 14 126.595C14 127.254 14.0334 127.905 14.0985 128.546C14.2762 130.296 14.6903 131.976 15.3084 133.554C18.0893 140.652 24.9994 145.679 33.0838 145.679C36.1276 145.679 39.0049 144.966 41.5581 143.699ZM79.9373 111.204C97.2156 111.204 111.223 97.197 111.223 79.9189C111.223 62.6406 97.2156 48.6339 79.9373 48.6339C62.6587 48.6339 48.6519 62.6406 48.6519 79.9189C48.6519 97.197 62.6587 111.204 79.9373 111.204Z" fill="black"/>
<path d="M225.408 70.6797H215.706V67.2792L214.106 66.2791C212.439 68.146 210.439 69.5795 208.105 70.5797C205.772 71.5798 203.338 72.0799 200.804 72.0799C193.536 72.0799 187.536 69.2462 182.802 63.5787C178.068 57.9112 175.701 50.7769 175.701 42.1757C175.701 33.5745 178.268 26.4401 183.402 20.7727C188.536 15.1052 194.903 12.2715 202.504 12.2715C207.638 12.2715 212.072 13.4717 215.806 15.872C219.607 18.2723 223.007 22.0729 226.008 27.2736L217.607 33.6745C215.073 29.5406 212.606 26.6068 210.206 24.8733C207.872 23.1397 205.271 22.2729 202.404 22.2729C197.47 22.2729 193.57 24.0731 190.703 27.6737C187.902 31.2742 186.502 36.1082 186.502 42.1757C186.502 48.2432 187.936 53.1439 190.803 56.8777C193.67 60.5449 197.57 62.3785 202.504 62.3785C204.505 62.3785 206.538 61.8118 208.605 60.6783C210.672 59.4781 213.039 57.4778 215.706 54.6774V48.5766H201.004V39.7753H225.408V70.6797ZM247.537 46.0762V58.2779L250.537 61.2784H283.542V70.6797H237.435V13.6717H282.541V23.073H250.537L247.537 26.0734V36.6749H278.141V46.0762H247.537ZM340.075 13.6717V70.6797H328.374L305.57 29.4739H302.57V70.6797H293.069V13.6717H306.871L327.574 51.777H330.574V13.6717H340.075ZM362.404 46.0762V58.2779L365.405 61.2784H398.409V70.6797H352.303V13.6717H397.409V23.073H365.405L362.404 26.0734V36.6749H393.009V46.0762H362.404ZM431.14 48.7766H419.938V70.6797H409.737V13.6717H433.54C440.941 13.6717 446.642 15.2052 450.642 18.2723C454.643 21.3394 456.643 25.6734 456.643 31.2742C456.643 35.4081 455.543 38.8752 453.343 41.6756C451.209 44.4093 448.075 46.3429 443.941 47.4764V49.7768L459.244 70.6797H447.042L431.14 48.7766ZM446.142 31.2742C446.142 28.6071 445.042 26.5735 442.841 25.1733C440.708 23.7731 437.541 23.073 433.34 23.073H422.938L419.938 26.0734V39.3753H433.34C437.541 39.3753 440.708 38.7085 442.841 37.375C445.042 35.9748 446.142 33.9412 446.142 31.2742ZM517.678 70.6797H506.676L500.975 55.1775H476.572L470.871 70.6797H460.069L482.373 13.6717H495.474L517.678 70.6797ZM480.572 44.576L482.373 46.3763H495.074L496.975 44.476L490.274 26.3735H487.273L480.572 44.576ZM537.106 13.6717V58.2779L540.106 61.2784H569.111V70.6797H527.005V13.6717H537.106ZM230.508 145.68H219.507L213.806 130.178H189.403L183.702 145.68H172.9L195.203 88.6717H208.305L230.508 145.68ZM193.403 119.576L195.203 121.376H207.905L209.805 119.476L203.105 101.373H200.104L193.403 119.576ZM282.841 145.68H273.14V142.279L271.54 141.279C269.873 143.146 267.873 144.58 265.539 145.58C263.205 146.58 260.772 147.08 258.238 147.08C250.97 147.08 244.969 144.246 240.235 138.579C235.502 132.911 233.135 125.777 233.135 117.176C233.135 108.574 235.702 101.44 240.836 95.7727C245.97 90.1052 252.337 87.2715 259.938 87.2715C265.072 87.2715 269.506 88.4717 273.24 90.872C277.041 93.2723 280.441 97.0729 283.442 102.274L275.04 108.674C272.507 104.541 270.04 101.607 267.639 99.8733C265.306 98.1397 262.705 97.2729 259.838 97.2729C254.904 97.2729 251.004 99.0731 248.137 102.674C245.336 106.274 243.936 111.108 243.936 117.176C243.936 123.243 245.37 128.144 248.237 131.878C251.104 135.545 255.004 137.379 259.938 137.379C261.939 137.379 263.972 136.812 266.039 135.678C268.106 134.478 270.473 132.478 273.14 129.677V123.577H258.438V114.775H282.841V145.68ZM304.97 121.076V133.278L307.971 136.278H340.975V145.68H294.869V88.6717H339.975V98.073H307.971L304.97 101.073V111.675H335.575V121.076H304.97ZM397.509 88.6717V145.68H385.807L363.004 104.474H360.004V145.68H350.503V88.6717H364.304L385.007 126.777H388.008V88.6717H397.509ZM458.043 98.073H439.641L436.64 101.073V145.68H426.239V101.073L423.239 98.073H404.836V88.6717H458.043V98.073ZM489.374 137.579C493.374 137.579 496.575 136.878 498.975 135.478C501.442 134.078 502.675 132.178 502.675 129.777C502.675 127.977 502.109 126.544 500.975 125.477C499.908 124.343 498.108 123.477 495.574 122.876L482.073 119.576C476.338 118.176 472.204 116.242 469.671 113.775C467.137 111.308 465.87 108.108 465.87 104.174C465.87 99.2398 467.971 95.2059 472.171 92.0722C476.372 88.8717 481.806 87.2715 488.473 87.2715C492.741 87.2715 496.841 87.9716 500.775 89.3718C504.709 90.772 508.476 92.8723 512.077 95.6727L505.676 103.674C503.009 101.407 500.142 99.6732 497.075 98.4731C494.008 97.2729 490.874 96.6728 487.673 96.6728C484.006 96.6728 481.139 97.3062 479.072 98.5731C477.072 99.7732 476.072 101.44 476.072 103.574C476.072 105.041 476.638 106.241 477.772 107.174C478.905 108.108 481.039 108.975 484.173 109.775L497.675 113.275C502.675 114.542 506.443 116.509 508.976 119.176C511.577 121.843 512.877 125.11 512.877 128.977C512.877 134.311 510.677 138.679 506.276 142.079C501.875 145.413 496.241 147.08 489.374 147.08C483.973 147.08 478.872 146.28 474.071 144.68C469.271 143.013 465.337 140.712 462.27 137.779L468.271 129.177C471.004 131.844 474.205 133.911 477.872 135.378C481.606 136.845 485.44 137.579 489.374 137.579Z" fill="black"/>
</svg>
